<svg width="24" height="24" viewBox="0 0 24 24" fill="none" xmlns="http://www.w3.org/2000/svg">
<path d="M18.6667 10.6667C19.12 10.6667 19.56 10.72 20 10.7867V4.36L10 0L0 4.36V10.9067C0 16.96 4.26667 22.6267 10 24C10.7333 23.8267 11.44 23.5733 12.1333 23.2667C11.2133 21.96 10.6667 20.3733 10.6667 18.6667C10.6667 14.2533 14.2533 10.6667 18.6667 10.6667Z" fill="white" fill-opacity="0.3"/>
<path d="M18.6663 13.332C15.7197 13.332 13.333 15.7187 13.333 18.6654C13.333 21.612 15.7197 23.9987 18.6663 23.9987C21.613 23.9987 23.9997 21.612 23.9997 18.6654C23.9997 15.7187 21.613 13.332 18.6663 13.332ZM18.6663 15.172C19.493 15.172 20.1597 15.852 20.1597 16.6654C20.1597 17.4787 19.4797 18.1587 18.6663 18.1587C17.853 18.1587 17.173 17.4787 17.173 16.6654C17.173 15.852 17.8397 15.172 18.6663 15.172ZM18.6663 22.332C17.4263 22.332 16.3463 21.7187 15.6797 20.772C15.7463 19.812 17.693 19.332 18.6663 19.332C19.6397 19.332 21.5863 19.812 21.653 20.772C20.9863 21.7187 19.9063 22.332 18.6663 22.332Z" fill="white" fill-opacity="0.3"/>
</svg>
