<svg width="30" height="20" viewBox="0 0 30 20" fill="none" xmlns="http://www.w3.org/2000/svg">
<path d="M20.333 8.66797C22.5463 8.66797 24.3197 6.8813 24.3197 4.66797C24.3197 2.45464 22.5463 0.667969 20.333 0.667969C18.1197 0.667969 16.333 2.45464 16.333 4.66797C16.333 6.8813 18.1197 8.66797 20.333 8.66797ZM9.66634 8.66797C11.8797 8.66797 13.653 6.8813 13.653 4.66797C13.653 2.45464 11.8797 0.667969 9.66634 0.667969C7.45301 0.667969 5.66634 2.45464 5.66634 4.66797C5.66634 6.8813 7.45301 8.66797 9.66634 8.66797ZM9.66634 11.3346C6.55967 11.3346 0.333008 12.8946 0.333008 16.0013V19.3346H18.9997V16.0013C18.9997 12.8946 12.773 11.3346 9.66634 11.3346ZM20.333 11.3346C19.9463 11.3346 19.5063 11.3613 19.0397 11.4013C20.5863 12.5213 21.6663 14.028 21.6663 16.0013V19.3346H29.6663V16.0013C29.6663 12.8946 23.4397 11.3346 20.333 11.3346Z" fill="white"/>
</svg>
